# xmcd
#
# Track frame offsets: 
#        150
#        9815
#        22990
#        34827
#        46967
#        60400
#        73897
#        87160
#        100340
#        113310
#        125392
#        136897
#        149015
#        162937
#        176397
#        186947
#        201332
#        213130
#        223502
#        235440
#        247860
#        258817
#        268620
#        278222
#        290762
#        300065
#        308827
#        319772
#        328412
#        337492
#
# Disc length: 4628 seconds
#
# Revision: 0
# Processed by: cddbd v1.4PL0 Copyright (c) Steve Scherf et al.
# Submitted via: ExactAudioCopy v0.90b4
#
DISCID=b512121e
DTITLE=Les Paul - How High The Moon
DYEAR=2002
DGENRE=
TTITLE0=How High The Moon
TTITLE1=Just Because
TTITLE2=Blue Skies
TTITLE3=Dark Eyes
TTITLE4=It's Been A Long, Long Time
TTITLE5=Sweet Leilani
TTITLE6=Rumors Are Flying
TTITLE7=Steel Guitar Rag
TTITLE8=Lover
TTITLE9=Brazil
TTITLE10=Hip-Billy Boogie
TTITLE11=What Is This Thing Called Love
TTITLE12=By The Night Of The Silvery Moon
TTITLE13=Caravan
TTITLE14=The Swiss Woodpecker
TTITLE15=The Tennessee Waltz
TTITLE16=Nola
TTITLE17=Mockin' Bird Hill
TTITLE18=Goofus
TTITLE19=I Wish I Had Never Seen Sunshine
TTITLE20=Little Rock Getaway
TTITLE21=In The Good Old Summertime
TTITLE22=Chicken Reel
TTITLE23=The Moon Of Manakoora
TTITLE24=Josephine
TTITLE25=Three Little Words
TTITLE26=La Rosita
TTITLE27=Just One More Chance
TTITLE28=Whispering
TTITLE29=The World Is Waiting For The Sunshine
EXTD=
EXTT0=
EXTT1=
EXTT2=
EXTT3=
EXTT4=
EXTT5=
EXTT6=
EXTT7=
EXTT8=
EXTT9=
EXTT10=
EXTT11=
EXTT12=
EXTT13=
EXTT14=
EXTT15=
EXTT16=
EXTT17=
EXTT18=
EXTT19=
EXTT20=
EXTT21=
EXTT22=
EXTT23=
EXTT24=
EXTT25=
EXTT26=
EXTT27=
EXTT28=
EXTT29=
PLAYORDER=
